<svg xmlns="http://www.w3.org/2000/svg" xmlns:xlink="http://www.w3.org/1999/xlink" x="0px" y="0px" viewBox="0 0 16 16" style="enable-background:new 0 0 16 16;" xml:space="preserve"><path fill="#FFFFFF" d="M0,0h1v15h15v1H0V0z M10,3.5C10,3.2,10.2,3,10.5,3h4C14.8,3,15,3.2,15,3.5v4C15,7.8,14.8,8,14.5,8S14,7.8,14,7.5V4.9l-3.6,4.4c-0.1,0.1-0.2,0.2-0.4,0.2c-0.1,0-0.3,0-0.4-0.1L7.1,6.8l-3.7,5c-0.2,0.2-0.5,0.3-0.7,0.1c-0.2-0.2-0.3-0.5-0.1-0.7l4-5.5C6.7,5.6,6.8,5.5,7,5.5c0.1,0,0.3,0,0.4,0.1L10,8.3L13.4,4h-2.9C10.2,4,10,3.8,10,3.5z"/></svg>
