<svg xmlns="http://www.w3.org/2000/svg" xmlns:xlink="http://www.w3.org/1999/xlink" viewBox="0 0 100 100" style="enable-background:new 0 0 100 100;" xml:space="preserve"><path d="M0,24v52c0,13.3,10.7,24,24,24h52c13.3,0,24-10.7,24-24V24c0-13.3-10.7-24-24-24H24C10.7,0,0,10.7,0,24z M39.9,53.3c-1-0.5-2.5-0.7-4.4-0.7h-9.4v11.6h9.2c1.9,0,3.4-0.2,4.4-0.8c1.9-0.9,2.9-2.8,2.9-5.4C42.7,55.8,41.8,54.2,39.9,53.3z M40.1,44.3c1.2-0.7,1.8-2,1.8-3.8c0-2-0.8-3.4-2.3-4c-1.3-0.4-3.1-0.7-5.1-0.7h-8.1v9.6h9.2C37.3,45.4,38.9,45,40.1,44.3z M68.3,45.1c-2.1,0-3.7,0.6-4.9,1.8c-1.2,1.2-1.9,2.8-2.2,4.8h14.1c-0.2-2.2-0.9-3.8-2.2-4.9C71.9,45.7,70.3,45.1,68.3,45.1z M59.5,30h17.6v4.4H59.5V30z M50,65.6c-0.8,1.4-1.9,2.5-3.1,3.4c-1.4,1.1-3,1.8-4.9,2.2c-1.9,0.4-3.9,0.6-6.2,0.6H16.2V28.2h21.1c5.3,0.1,9.1,1.6,11.3,4.6c1.3,1.9,2,4.1,2,6.7c0,2.7-0.7,4.8-2,6.4c-0.7,0.9-1.9,1.7-3.3,2.5c2.2,0.8,3.9,2.1,5,3.9c1.1,1.8,1.7,3.9,1.7,6.4C51.9,61.2,51.3,63.6,50,65.6z M83.8,57.1H61.1c0.1,3.1,1.2,5.3,3.3,6.6c1.2,0.8,2.7,1.2,4.5,1.2c1.9,0,3.4-0.5,4.5-1.4c0.6-0.5,1.2-1.2,1.7-2.1h8.3c-0.2,1.9-1.2,3.7-3,5.6c-2.8,3-6.7,4.6-11.7,4.6c-4.2,0-7.8-1.3-11-3.8c-3.2-2.6-4.8-6.7-4.8-12.5c0-5.4,1.4-9.6,4.3-12.5c2.9-2.9,6.6-4.3,11.2-4.3c2.7,0,5.2,0.5,7.3,1.5c2.2,1,4,2.5,5.4,4.6c1.3,1.9,2.1,4,2.5,6.5C83.8,52.4,83.9,54.4,83.8,57.1z"/></svg>