<svg xmlns="http://www.w3.org/2000/svg" xmlns:xlink="http://www.w3.org/1999/xlink" x="0px" y="0px" viewBox="0 0 25 24" style="enable-background:new 0 0 25 24;" xml:space="preserve"><path d="M12.5,0C5.7,0,0.3,5.5,0.3,12.3c0,5.4,3.5,10,8.4,11.7c0.6,0.1,0.8-0.3,0.8-0.6c0-0.3,0-1.3,0-2.3c-3.4,0.7-4.1-1.5-4.1-1.5C4.8,18.2,4,17.8,4,17.8C2.8,17.1,4,17.1,4,17.1c1.2,0.1,1.9,1.3,1.9,1.3c1.1,1.9,2.9,1.3,3.6,1c0.1-0.8,0.4-1.3,0.8-1.6c-2.7-0.3-5.6-1.3-5.6-6.1c0-1.3,0.5-2.4,1.3-3.3C5.8,8,5.4,6.8,6.1,5.1c0,0,1-0.3,3.4,1.3c1-0.3,2-0.4,3.1-0.4c1,0,2.1,0.1,3.1,0.4c2.3-1.6,3.4-1.3,3.4-1.3c0.7,1.7,0.2,3,0.1,3.3c0.8,0.9,1.3,2,1.3,3.3c0,4.7-2.9,5.8-5.6,6.1c0.4,0.4,0.8,1.1,0.8,2.3c0,1.6,0,3,0,3.4c0,0.3,0.2,0.7,0.8,0.6c4.9-1.6,8.4-6.2,8.4-11.7C24.7,5.5,19.2,0,12.5,0z"/></svg>