<?xml version="1.0" encoding="utf-8"?>
<!-- Generator: Adobe Illustrator 24.1.2, SVG Export Plug-In . SVG Version: 6.00 Build 0)  -->
<svg version="1.1" id="Слой_1" xmlns="http://www.w3.org/2000/svg" xmlns:xlink="http://www.w3.org/1999/xlink" x="0px" y="0px"
	 viewBox="0 0 16 16" style="enable-background:new 0 0 16 16;" xml:space="preserve">
<style type="text/css">
	.st0{fill-rule:evenodd;clip-rule:evenodd;fill:#01FFBD;fill-opacity:0.9854;}
</style>
<path class="st0" d="M10.3,6.1c0.2,0.2,0.2,0.5,0,0.7l-3,3C7.3,9.9,7.1,10,7,10c-0.1,0-0.3-0.1-0.4-0.1L5.1,8.4
	c-0.2-0.2-0.2-0.5,0-0.7s0.5-0.2,0.7,0L7,8.8l2.6-2.6C9.8,6,10.2,6,10.3,6.1z M10.3,2.5L9.3,1.6l0.7-0.7l0.6,0.6l0.9,0
	c1.6,0,2.9,1.3,2.9,2.9l0,0.9l0.6,0.6c1.2,1.1,1.2,3,0,4.1l-0.6,0.6l0,0.9c0,1.6-1.3,2.9-2.9,2.9l-0.9,0l-0.6,0.6
	c-1.1,1.2-3,1.2-4.1,0l-0.6-0.6l-0.9,0c-1.6,0-2.9-1.3-2.9-2.9l0-0.9l-0.6-0.6c-1.2-1.1-1.2-3,0-4.1l0.6-0.6l0-0.9
	c0-1.6,1.3-2.9,2.9-2.9l0.9,0l0.6-0.6c1.1-1.2,3-1.2,4.1,0L9.3,1.6c-0.7-0.8-2-0.8-2.7,0L5.7,2.5l-1.3,0c-1.1,0-1.9,0.9-1.9,1.9
	l0,1.3L1.6,6.6c-0.8,0.7-0.8,2,0,2.7l0.9,0.9l0,1.3c0,1.1,0.9,1.9,1.9,1.9l1.3,0l0.9,0.9c0.7,0.8,2,0.8,2.7,0l0.9-0.9l1.3,0
	c1.1,0,1.9-0.9,1.9-1.9l0-1.3l0.9-0.9c0.8-0.7,0.8-2,0-2.7l-0.9-0.9l0-1.3c0-1.1-0.9-1.9-1.9-1.9L10.3,2.5z"/>
</svg>
