<svg viewBox="0 0 9 10" xmlns="http://www.w3.org/2000/svg"><path d="M1.20202 0.0923633C1.47957 -0.0504736 1.81369 -0.0262119 2.0677 0.155225L6.58333 3.38068V0.833336C6.58333 0.373099 6.95643 3.06343e-06 7.41666 3.06343e-06C7.8769 3.06343e-06 8.25 0.373099 8.25 0.833336V9.16666C8.25 9.6269 7.8769 10 7.41666 10C6.95643 10 6.58333 9.6269 6.58333 9.16666V6.61932L2.0677 9.84477C1.81369 10.0262 1.47957 10.0505 1.20202 9.90764C0.924456 9.7648 0.75 9.47882 0.75 9.16666V0.833336C0.75 0.52118 0.924456 0.2352 1.20202 0.0923633Z" fill="#000000"/></svg>