<svg viewBox="0 0 9 10" xmlns="http://www.w3.org/2000/svg"><path d="M7.79798 0.0923631C7.52042 -0.0504737 7.18631 -0.0262117 6.9323 0.155225L2.41667 3.38068V0.833336C2.41667 0.373099 2.04357 3.00254e-06 1.58333 3.00254e-06C1.1231 3.00254e-06 0.75 0.373099 0.75 0.833336V9.16666C0.75 9.6269 1.1231 10 1.58333 10C2.04357 10 2.41667 9.6269 2.41667 9.16666V6.61932L6.9323 9.84477C7.18631 10.0262 7.52042 10.0505 7.79798 9.90764C8.07554 9.7648 8.25 9.47882 8.25 9.16666V0.833336C8.25 0.52118 8.07554 0.2352 7.79798 0.0923631Z" fill="#000000"/></svg>