<svg xmlns="http://www.w3.org/2000/svg" xmlns:xlink="http://www.w3.org/1999/xlink" x="0px" y="0px" viewBox="0 0 100 100" style="enable-background:new 0 0 100 100;" xml:space="preserve"><path d="M75.5,0.5h-51c-13.3,0-24,10.7-24,24v51c0,13.3,10.7,24,24,24h51c13.3,0,24-10.7,24-24v-51C99.5,11.2,88.8,0.5,75.5,0.5z M65.4,19.7c4-0.3,7.7,0.6,10.9,3.1c0.3,0.3,0.6,0.9,0.6,1.3c0.1,1.9,0,3.8,0,5.7c-1.5,0-2.9,0-4.5,0c0-1.1-0.1-2.3,0-3.4c0.1-0.9-0.3-1.3-1.1-1.6c-4.5-2-9.6-0.6-12,3.3c-2.6,4.2-1.7,9.8,2,12.8c3.5,2.8,8.9,2.4,12.1-1c0.3-0.1,0.5-0.4,0.8-0.7c1.2,0.9,2.3,1.8,3.5,2.7c-2,2.7-4.6,4.5-7.8,5.1c-8.8,1.9-16.7-4.3-17-13.3C52.6,26.7,58.4,20.2,65.4,19.7z M19.7,79c-1.5,0-3,0-4.5,0c0-1.6,0-3,0-4.5c1.5,0,3,0,4.5,0C19.7,76,19.7,77.5,19.7,79z M45.1,60.6c-1.5,0-2.9,0-4.4,0c0-1.3,0-2.5,0-3.9c-1.6,0-3,0.5-4.3,1.5c-2,1.7-3.1,3.8-3.2,6.5c0,3,0,5.9,0,8.9c0,0.3,0,0.7,0,1.1c3.8,0,7.4,0,11.2,0c0,1.5,0,2.8,0,4.2c-6.7,0-13.4,0-20.1,0c0-1.4,0-2.8,0-4.3c1.4,0,2.8,0,4.2,0c0.1-6,0.1-11.8,0.1-17.8c-1.5,0-2.8,0-4.2,0c0-1.4,0-2.6,0-4c2.7,0,5.4,0,8.1,0c0.1,1.6,0.2,3.1,0.3,5.1c3-4.9,7.3-5.7,12.3-5.1C45.1,55.4,45.1,58,45.1,60.6z M47.1,25.7C44.6,32.5,42,39.2,39.5,46c-0.3,0.8-0.7,1.1-1.5,1c-1-0.1-2.3,0.3-3.1-0.2c-0.7-0.5-0.8-1.8-1.2-2.8c-2.2-6.1-4.4-12.1-6.5-18.2c-0.3-0.8-0.6-1.1-1.5-1.1c-0.9,0.2-2,0.1-3.3,0.1c0-1.5,0-3,0-4.5c2.6,0,5.2,0,7.8,0c0.2,0,0.6,0.5,0.7,0.9c2,5.9,4,11.7,6,17.6c0.1,0.2,0.2,0.5,0.3,1c0.2-0.5,0.3-0.8,0.4-1.1c2-5.8,4-11.7,6-17.5c0.2-0.7,0.5-0.9,1.3-0.9c2.2,0.1,4.4,0,6.8,0c0,1.5,0,2.9,0,4.5c-1.1,0-2.2,0-3.3,0C47.7,24.8,47.4,25,47.1,25.7z M79.5,78.9c-0.9,0-1.8,0-2.7,0c-1.2,0-2.3-0.1-3.5,0c-0.7,0-0.9-0.2-1-0.9c-0.1-1.1-0.3-2.1-0.5-3.3c-0.2,0.3-0.4,0.5-0.5,0.7c-2.3,3.4-5.6,4.8-9.6,4c-3.9-0.8-6.5-3.4-7.2-7.4c-0.2-1-0.3-2-0.3-3c0-3.6,0-7.1,0-10.7c0-0.3,0-0.7,0-1.2c-1.3,0-2.6,0-3.9,0c0-1.6,0-3,0-4.5c2.9,0,5.7,0,8.6,0c0,0.4,0,0.8,0,1.2c0,4.9,0,9.7,0,14.5c0,1.1,0.1,2.3,0.4,3.3c0.7,2.9,3.2,4.4,6.1,3.7c3-0.7,5.4-3.3,5.6-6.7c0.2-3.7,0-7.5,0.2-11.5c-1.6,0-3,0-4.5,0c0-1.5,0-2.9,0-4.4c3.1,0,6.1,0,9.3,0c0,7.2,0,14.5,0,21.8c1.3,0,2.3,0,3.5,0C79.5,76,79.5,77.4,79.5,78.9z"/></svg>