<svg xmlns="http://www.w3.org/2000/svg" xmlns:xlink="http://www.w3.org/1999/xlink" x="0px" y="0px" viewBox="0 0 16 16" style="enable-background:new 0 0 16 16;" xml:space="preserve"><path fill="#FFFFFF" d="M10.6,0.6c0.2-0.2,0.5-0.2,0.7,0l4,4c0.2,0.2,0.2,0.5,0,0.7l-1.9,1.9l-0.8,3.3c-0.1,0.5-0.5,0.9-1,1.1L1.3,14.7L4.4,4.4c0.2-0.5,0.6-0.9,1.1-1l3.3-0.8L10.6,0.6z M8.8,3.6L5.7,4.3c-0.2,0-0.3,0.2-0.4,0.3l-2.6,8.6l0-0.1L7,8c0-0.6,0.4-1,1-1c0.6,0,1,0.4,1,1S8.6,9,8,9l-5.2,4.2l-0.1,0l8.6-2.6c0.2-0.1,0.3-0.2,0.3-0.4l0.8-3.2L8.8,3.6z"/></svg>
