<svg xmlns="http://www.w3.org/2000/svg" xmlns:xlink="http://www.w3.org/1999/xlink" x="0px" y="0px" viewBox="0 0 25 24" style="enable-background:new 0 0 25 24;" xml:space="preserve"><path d="M22.8,1.7C21.1,0,18.4,0,13,0h-1C6.6,0,3.9,0,2.2,1.7s-1.7,4.4-1.7,9.8v1c0,5.4,0,8.1,1.7,9.8S6.6,24,12,24h1c5.4,0,8.1,0,9.8-1.7s1.7-4.4,1.7-9.8v-1C24.5,6.1,24.5,3.4,22.8,1.7z M17.7,17.3c-0.6-1.9-2.1-3.4-4.1-3.6v3.6h-0.3c-5.5,0-8.6-3.8-8.7-10h2.7c0.1,4.6,2.1,6.5,3.7,6.9V7.3h2.5v3.9c1.6-0.1,3.2-1.9,3.8-3.9h2.6c-0.4,2.5-2.2,4.3-3.5,5c1.3,0.6,3.3,2.2,4.1,5H17.7z"/></svg>