<svg xmlns="http://www.w3.org/2000/svg" width="825.09993" height="772.87173" viewBox="0 0 825.09993 772.87173">
  <defs>
    <style>
      .cls-1 {
        fill: #d25d18;
      }

      .cls-2 {
        fill: #e6791c;
      }

      .cls-3 {
        fill: #f68e1b;
      }

      .cls-4 {
        fill: #ffb947;
      }

      .cls-5 {
        fill: #8e3316;
      }

      .cls-6 {
        fill: #722611;
      }

      .cls-7 {
        fill: #a34229;
      }

      .cls-8 {
        fill: #ffda72;
      }
    </style>
  </defs>
  <g id="Слой_2" data-name="Слой 2">
    <g id="Слой_3" data-name="Слой 3">
      <g>
        <path class="cls-1" d="M673.651,127.22175s-29.8467,2.6554-36.8494,13.1594-14.0054,46.6847-18.6739,56.0216-24.5095,22.1752-38.5149,23.3424-16.3396,46.6846-16.3396,46.6846l-26.8437,18.6739a39.01363,39.01363,0,0,0-36.1806,7.0027c-17.5068,14.0054-43.1833,45.5175-63.0243,56.0216s-45.5176,42.0162-52.5203,59.523-3.5013,66.5256,0,74.6954,10.5041,31.5122,10.5041,31.5122-21.0081,2.3342-40.8491,18.6739-23.3423,38.5148-28.0108,50.186-22.1752,32.6792-35.0135,35.0135c0,0-1.1671,33.8464-3.5014,50.186s-10.6878,63.8319-10.6878,63.8319l267.4535-150.1985,134.2185-429.499Z"/>
        <path class="cls-1" d="M557.43785,63.35145l-231.0891,131.8841-149.3913,210.0811-4.6681,264.9355,1.4754,6.2247s30.0367,1.9451,46.3762-13.2274,17.5068-77.0297,22.1754-85.1995c4.6681-8.1699,18.6735-16.3396,30.3449-45.5176a91.56475,91.56475,0,0,1,25.3168-35.9418c3.9933-6.0056,8.8115-11.6554,13.4579-17.3829,14.9598-18.4412,14.5431-38.5076,12.4855-61.0527a5.95923,5.95923,0,0,1,.9117-3.9035,82.56607,82.56607,0,0,1,1.5156-21.7731c8.1695-38.5149,31.5121-66.5257,40.8489-75.8626s63.0243-57.1887,82.8652-67.6928c19.8412-10.504,24.5094-7.0027,32.6794-5.8355,8.1699,1.167,17.5217-2.9033,19.2647-28.8789,1.7434-25.9757,16.916-36.4797,32.0883-41.1481,15.1726-4.6685,17.5067,0,26.8439-19.8411,9.3368-19.8409,18.0394-68.3967,18.0394-68.3967Z"/>
        <path class="cls-1" d="M569.84005,55.146a59.261,59.261,0,0,0-13.7733-10.4802c-18.4646-10.6234-43.0882-21.5395-64.1655-24.3052-25.3015-3.3202-42.3351-7.6618-67.2369-14.0055-39.1261-9.9671-67.7822-6.451-107.6315-1.3585-18.5612,2.3719-36.9779-.3194-55.1813,6.6106-24.1756,9.2034-36.1128,29.6038-57.9304,41.5582-42.7441,23.4204-80.5097,29.5281-116.0425,68.3592-28.2822,30.9072-55.0745,68.716-71.7465,107.1975-17.429,40.2294-5.0704,70.9824-5.5025,111.1367-.1748,16.2208-10.3284,33.1994-10.6164,50.3387-.4185,24.8592,9.135,46.0761,20.0297,68.0098,12.7087,25.5863,16.2998,45.963,25.0843,73.7987,14.5931,46.2414,42.0406,81.0483,78.2132,113.0084a176.69182,176.69182,0,0,0,50.4243,31.4625,90.739,90.739,0,0,0,20.5824-3.5562c7.6579-2.311,15.9988-5.9545,21.7372-11.8705a261.11532,261.11532,0,0,0,10.587-43.3345q1.6374-10.00035,2.4833-20.1022c.5223-6.2469-.0851-12.9478.8398-19.1059.9891-6.5857,7.6656-8.1023,12.3693-11.8621a40.49258,40.49258,0,0,0,9.6766-11.1189c5.6384-9.5466,8.2435-20.5493,13.0591-30.4919,5.0011-10.3248,12.0893-20.7615,20.5606-28.5701,7.2365-6.6707,15.8475-11.5102,24.7172-15.9594.353-.4325.7073-.8644,1.0587-1.2975a57.91731,57.91731,0,0,0,12.5099-28.342c-5.7201-18.5462-9.2958-37.8154-7.5934-57.1523,2.0635-23.4405,11.8358-44.0804,26.6691-62.1356,16.9666-20.652,38.57-35.1395,58.7968-52.2588,16.372-13.8569,30.2381-32.544,50.626-40.8595a45.84625,45.84625,0,0,1,19.0211-3.3429c4.7938-1.7936,9.7291-3.3155,14.7068-5.1065,8.5995-3.0941,13.1416-8.6582,15.8347-15.8015.0521-13.6841.7642-27.1548,9.0508-38.1811,7.1579-9.5251,15.6783-9.3971,26.2362-11.7219,12.0718-2.6585,17.1448-17.029,20.3597-27.5778,5.1841-17.0112,7.5562-39.1362,21.3249-51.9051A126.3909,126.3909,0,0,0,569.84005,55.146Z"/>
        <path class="cls-2" d="M518.32545,73.75605c-15.7561-31.5121-35.0135-40.2655-78.7804-38.5148s-14.0054-21.0081-80.531-15.7561-92.7858-7.0027-108.5419,22.7588-38.5148,38.5148-59.5229,40.2655-63.0243,26.2601-63.0243,26.2601-70.0271,68.2764-82.2818,94.5365-22.7588,66.5257-22.7588,85.7831,3.5014,33.2628,12.2548,36.7642,40.2655-21.0081,40.2655-21.0081-38.5149,38.5148-45.5176,68.2763,1.7507,43.7669,10.5041,61.2736,28.0108,40.2656,29.7615,80.5311,77.0297,126.0486,117.2952,136.5527c9.0419,2.3587,19.4156,3.2119,30.6304,3.5009a273.26216,273.26216,0,0,0,8.5931-37.2642q1.6374-10.00035,2.4833-20.1022c.5223-6.2469-.0851-12.9478.8398-19.1059.9891-6.5857,7.6656-8.1023,12.3693-11.8621a40.49258,40.49258,0,0,0,9.6766-11.1189c5.6384-9.5466,8.2435-20.5493,13.0591-30.4919,5.0011-10.3248,12.0893-20.7615,20.5606-28.5701,7.2365-6.6707,15.8475-11.5102,24.7172-15.9594.353-.4325.7073-.8644,1.0587-1.2975a57.91731,57.91731,0,0,0,12.5099-28.342c-5.7201-18.5462-9.2958-37.8154-7.5934-57.1523,2.0635-23.4405,11.8358-44.0804,26.6691-62.1356,16.9666-20.652,38.57-35.1395,58.7968-52.2588,16.372-13.8569,30.2381-32.544,50.626-40.8595a45.84625,45.84625,0,0,1,19.0211-3.3429c4.7938-1.7936,9.7291-3.3155,14.7068-5.1065,8.5995-3.0941,13.1416-8.6582,15.8347-15.8015.0521-13.6841.7642-27.1548,9.0508-38.1811,7.1579-9.5251,15.6783-9.3971,26.2362-11.7219,12.0718-2.6585,17.1448-17.029,20.3597-27.5778,4.505-14.7817,6.8908-33.4223,16.4635-46.4392C545.32415,87.09725,528.75425,94.61405,518.32545,73.75605Z"/>
        <path class="cls-3" d="M513.07345,87.76145c-21.0081-24.5094-17.5068-43.7668-70.027-42.0162s-22.7588-7.0027-68.2763-14.0054-85.7831-10.504-105.0406,5.2521-12.2547,42.0162-36.7641,47.2682-63.7603,5.6958-89.6525,26.4819c-25.8921,20.7863-64.4069,59.3012-81.9137,99.5667s-38.5149,99.7885,14.0054,94.5365c14.985-1.4985,1.7507,35.0135-8.7534,50.7695s-24.5094,49.019-10.504,70.0271,49.0189,29.7614,45.5175,71.7776,33.2629,94.5365,54.271,105.0406c12.8484,6.4243,42.0713.4148,72.8436-1.224.1184-1.2083.274-2.4122.3753-3.6226.5223-6.2469-.0851-12.9478.8398-19.1059.9891-6.5857,7.6656-8.1023,12.3693-11.8621a40.49258,40.49258,0,0,0,9.6766-11.1189c5.6384-9.5466,8.2435-20.5493,13.0591-30.4919,5.0011-10.3248,12.0893-20.7615,20.5606-28.5701,7.2365-6.6707,15.8475-11.5102,24.7172-15.9594.353-.4325.7073-.8644,1.0587-1.2975a57.91731,57.91731,0,0,0,12.5099-28.342c-5.7201-18.5462-9.2958-37.8154-7.5934-57.1523,2.0635-23.4405,11.8358-44.0804,26.6691-62.1356,16.9666-20.652,38.57-35.1395,58.7968-52.2588,16.372-13.8569,30.2381-32.544,50.626-40.8595a45.84625,45.84625,0,0,1,19.0211-3.3429c4.7938-1.7936,9.7291-3.3155,14.7068-5.1065,8.5995-3.0941,13.1416-8.6582,15.8347-15.8015.0521-13.6841.7642-27.1548,9.0508-38.1811,7.1579-9.5251,15.6783-9.3971,26.2362-11.7219,12.0718-2.6585,17.1448-17.029,20.3597-27.5778,2.9368-9.6369,4.9687-20.9191,8.6726-31.2167C543.03965,102.04945,524.96745,101.63805,513.07345,87.76145Z"/>
        <path class="cls-4" d="M248.22565,327.73115c-14.6818,21.2232-6.0649,51.1888,10.2701,71.1676,11.3688,13.9048,27.0264,28.9801,22.7803,46.4318-1.5013,6.1709-5.4121,11.4329-9.2316,16.5069q-12.0867,16.05645-24.1735,32.1129c-4.5548,6.0506-11.8849,12.8213-18.5813,9.2837-5.4021-2.8538-5.8311-10.3634-9.2599-15.4201-6.0394-8.9064-19.3597-8.0787-29.67-4.9972s-21.8085,7.3319-31.2955,2.2531c-13.787-7.3806-12.0215-28.1081-4.5022-41.8199s19.0802-26.5492,19.0234-42.1874a30.81,30.81,0,0,0-12.5172-24.4237c-5.8565-4.2453-13.0522-6.277-19.0811-10.2739-16.6072-11.01-20.4333-34.8522-14.1366-53.7565,9.7608-29.3041,41.69-73.192,68.3022-36.1083,4.2807,5.9652,9.457,12.1099,16.645,13.6065,7.3069,1.5214,14.3025-2.7402,21.1292-5.7571,13.0437-5.7644,30.5504-46.03,44.5558-35.5259s49.0189,38.5148,42.0162,54.2709-24.5094,7.0027-38.5148,8.7534S252.98205,320.85555,248.22565,327.73115Z"/>
        <path class="cls-4" d="M266.22825,194.55265c17.5067-3.5013,41.7555,7.3687,47.1379,19.4404,1.8955,4.2514,7.457,5.7823,11.926,7.0854,10.2904,3.0006,20.7752-2.9124,31.1215-5.714a54.69424,54.69424,0,0,1,34.8913,2.2287c14.1917,5.867,28.1091,21.3909,42.4278,15.8409,13.1506-5.0971,27.9873-23.1253,42.4586-4.1027,1.9536,2.568,3.812,5.4798,6.4081,7.2594,1.9195.4358,3.8283.9588,5.7256,1.55,5.8773-.6502,10.6289-7.8832,12.0765-14.3512,6.9472-31.0429-28.8229-62.3775-59.6943-70.0502-11.3179-2.8129-22.9738,3.6903-31.2677,11.8888-8.2943,8.1984-14.6871,18.2936-23.7636,25.6161-3.0368,2.4495-6.5984,4.6397-10.4998,4.6183-7.3976-.0406-12.5308-8.2602-12.2428-15.6521.2877-7.3919,4.3036-14.0352,7.8661-20.5184,1.325-2.411,5.2375-16.7455,4.5541-19.4103-.8014-3.1252-4.0138-4.9243-6.9929-6.1634-16.0322-6.6685-37.5865,18.3953-54.8642,16.6675-29.178-2.9179-47.2682-21.0081-56.0216,0S248.72145,198.05405,266.22825,194.55265Z"/>
        <path class="cls-4" d="M159.43685,150.78585c-20.0516,8.9118-32.695,20.1427-31.5121,56.0216.4049,12.2808-22.9501,25.2802-29.4393,14.8459-1.9862-3.1937-2.4435-7.0873-2.626-10.8438-2.3232-47.8323,39.068-95.0372,100.3416-103.7906,40.0113-5.7159,66.5257-24.5095,77.0297-42.0162s17.5068,14.0054,17.5068,14.0054l-7.0027,14.0054s-33.2629-5.252-45.5176,21.0081-8.7534,33.2628-29.7615,36.7642S175.193,143.78315,159.43685,150.78585Z"/>
        <path class="cls-2" d="M311.436,479.20765a57.91406,57.91406,0,0,0,12.5073-28.3268,180.13079,180.13079,0,0,1-7.2767-33.9289c-2.052-3.777-4.0249-7.5854-5.7845-11.4733-8.6508-19.1138-10.8725-44.6938,5.0113-58.4003-6.0645-7.3529-18.5534-.9684-22.8109,7.5591-6.8488,13.7179-3.7834,30.3829,2.208,44.4963,5.9915,14.1136,14.7154,27.0523,19.4468,41.6366,1.9293,5.9476,3.0966,12.7286.1372,18.2368-4.7391,8.8204-16.7648,9.641-25.8297,13.8932-12.9429,6.0708-20.2849,19.8683-25.3305,33.2441-5.0452,13.3758-8.9628,27.7053-18.4095,38.435-9.4466,10.7299-26.7751,16.3405-38.199,7.746-10.6733-8.0299-11.1725-23.5826-10.6831-36.9303a233.56961,233.56961,0,0,1-37.5575,26.6328c9.6723,10.7538,20.9222,22.384,26.1319,36.1679,4.6251,12.238-1.5557,27.9862,1.8789,37.471,6.3757,17.6058,23.4298,11.8056,38.4478,9.6856.4761-2.5476.9313-5.0946,1.3476-7.6368q1.6374-10.00035,2.4833-20.1022c.5223-6.2469-.0851-12.9478.8398-19.1059.9891-6.5857,7.6656-8.1023,12.3693-11.8621a40.49258,40.49258,0,0,0,9.6766-11.1189c5.6384-9.5466,8.2435-20.5493,13.0591-30.4919a102.71506,102.71506,0,0,1,15.2701-23.1329c7.6703-11.317,17.9192-20.475,30.9258-22.5219C311.34235,479.32235,311.38935,479.26515,311.436,479.20765Z"/>
        <path class="cls-2" d="M86.13485,473.51975a86.50815,86.50815,0,0,0,13.5614-68.7669c-.4298-1.8476-.8733-3.9643.2385-5.5012,1.046-1.4458,3.0339-1.7587,4.8077-1.9528,15.0835-1.6505,33.9388-1.4213,40.9374,12.0418a38.743,38.743,0,0,0-20.374,33.4275c-.0348,6.9509,1.8381,13.8113,1.7439,20.7616-.3485,25.6924-26.3935,44.3393-30.9786,69.6217l-10.2093-62.7153Z"/>
        <path class="cls-2" d="M112.24505,271.54055c13.1044-17.2703,18.3086-40.0767,33.7194-55.3245,22.36-22.1234,61.1091-23.2781,79.6571-48.6825,10.5741-14.4828,12.1871-34.1036,23.0183-48.3951,2.122,21.1874-6.2479,41.8619-14.4527,61.5111-8.1293,19.4683-18.916,41.3257-39.3848,46.4372-9.4161,2.3514-19.533.615-28.8642,3.2834-24.5685,7.0258-30.8657,38.0472-45.0428,59.307-18.1156,27.1658-51.8933,39.9324-72.3704,65.3655.0915-20.6551-5.5635-42.4381,10.4368-54.7898C75.39615,287.56605,97.08235,292.01025,112.24505,271.54055Z"/>
        <path class="cls-2" d="M353.62735,319.95135c4.5485-4.5443,9.2996-8.8284,14.1734-12.9716-12.5873-12.2833-20.2952-29.6242-12.6061-46.6813-21.8261-11.2844-26.3161,10.1331-22.9981,26.0334C334.82945,298.94885,343.39,310.38955,353.62735,319.95135Z"/>
        <path class="cls-2" d="M442.25575,132.18655c7.3352-3.959,16.2382-7.5388,23.7132-3.8503,6.2008,3.0601,9.1602,10.0433,13.0433,15.765,9.1953,13.5487,24.9809,19.7803,40.701,20.5244-.4556,1.5193-.88,3.1408-1.2899,4.8062,5.4948-3.093,11.7132-3.5503,18.8706-5.1263a17.2495,17.2495,0,0,0,1.761-.5099c2.1639-8.0868,4.8041-16.0829,7.4369-24.0159-11.3042,7.3089-26.1789-1.4771-35.1494-11.5142-8.9701-10.037-17.6282-22.5699-30.9612-24.4241-8.3837-1.166-16.6362,2.3326-24.3791,5.7529-32.9773,14.5682-70.5656,35.0412-74.9341,70.8278A227.305,227.305,0,0,1,442.25575,132.18655Z"/>
        <path class="cls-2" d="M302.82,221.95705c-6.7201-7.5369-13.732-17.1507-23.8279-16.9543-8.803.1713-15.3358,7.9154-20.4866,15.0562q-20.24445,28.06635-38.0076,57.8157,25.5054-22.6458,51.0107-45.2917c1.53-1.3584,3.2864-2.8014,5.33-2.7023,1.6333.0792,3.0331,1.1366,4.3173,2.1488,24.0094,18.8862,47.5527,40.2381,73.0791,56.7172C363.98345,244.38125,326.50585,248.52225,302.82,221.95705Z"/>
        <path class="cls-2" d="M464.061,235.44975q-2.2926-2.1168-4.5211-4.3024a42.58267,42.58267,0,0,1-2.8154,5.8367A45.15545,45.15545,0,0,1,464.061,235.44975Z"/>
        <path class="cls-2" d="M401.81835,279.31895c6.6061-5.5914,12.8078-11.9654,19.1912-18.131-10.8767,1.9874-22.2668.6591-31.9635-4.8073a248.85375,248.85375,0,0,1-22.2053,50.9552c-.1718.298-.3432.6025-.5124.9101C377.83765,298.34285,390.05775,289.27265,401.81835,279.31895Z"/>
        <path class="cls-5" d="M70.51055,391.04565c1.9837,11.8054,7.97,22.603,15.1509,32.1809,4.3924,5.8586,9.5723,11.575,16.4582,14.0653s15.8079.6783,19.3381-5.7368c3.2029-5.8202,2.0634-14.6957,8.0481-17.5794,5.0123-2.4151,11.9672,1.5084,16.1689-2.1388,3.7404-3.2468,1.576-9.7419-2.3694-12.7362s-9.0603-4.0387-13.1849-6.781c-8.9293-5.9371-11.0527-17.9264-16.7727-26.9962a36.81334,36.81334,0,0,0-13.7971-12.8055C75.12925,339.54985,67.69265,374.27635,70.51055,391.04565Z"/>
        <path class="cls-5" d="M219.38355,566.03715q-2.09385-25.5546-4.1876-51.1091c-.2256-2.75-.4717-5.578-1.7096-8.044-4.0105-7.99-13.998-12.1115-22.5373-9.4646-11.9253,3.6965-23.3507,20.7221-34.5139,26.3139-3.5146,1.7605-7.2683,3.756-8.9778,7.2957-3.1315,6.4833,2.5946,14.1662,9.2766,16.848s14.1926,2.3371,21.1244,4.284c12.1681,3.4173,21.1921,13.3683,31.7746,20.2782,2.2091,1.4421,5.0596,2.7793,7.3596,1.4879C219.53265,572.50085,219.62125,568.94065,219.38355,566.03715Z"/>
        <path class="cls-5" d="M299.33975,399.07475c6.4052.2911,12.5569-2.7384,17.2161-7.2243a106.84018,106.84018,0,0,1,14.3192-42.9072,20.15319,20.15319,0,0,0-4.9931-11.2154c-3.9343-4.2549-9.7223-6.2762-15.4056-7.4085-18.5355-3.6928-48.5902.5082-48.2123,25.9528.1705,11.4871,7.3621,21.6492,15.2393,30.0119C283.43835,392.585,290.69285,398.68175,299.33975,399.07475Z"/>
        <path class="cls-2" d="M185.69705,324.10265c-9.2127-6.1418-26.2602,35.0135-15.7561,38.5149S201.45305,334.60675,185.69705,324.10265Z"/>
        <path class="cls-2" d="M218.95985,303.09455c-15.1499-4.3285-12.2547,31.5122-1.7507,26.2601S231.21455,306.596,218.95985,303.09455Z"/>
        <path class="cls-3" d="M217.20915,371.37085c-8.2882-3.3153-7.0027,17.5068,1.7507,17.5068S225.96255,374.87225,217.20915,371.37085Z"/>
        <path class="cls-2" d="M80.65645,222.56345c-10.7836,13.9389-.5835,95.1201-18.0903,93.9529C34.76805,314.66315,71.19805,234.78945,80.65645,222.56345Z"/>
        <path class="cls-5" d="M155.36015,165.88625a66.60776,66.60776,0,0,0-17.1802,42.0005c-.1479,3.9795.1508,8.2297,2.489,11.4533,4.2623,5.8763,13.0133,5.7224,20.1034,4.1641a96.71089,96.71089,0,0,0,39.3513-18.7493c6.6481-5.2989,13.0809-12.9089,11.654-21.2898-1.2156-7.1404-7.787-12.11-14.3842-15.1a60.6697,60.6697,0,0,0-41.1247-3.0992Z"/>
        <path class="cls-6" d="M143.55345,399.30835c1.5293,6.6825-5.4273,6.7844-17.4841,8.6166-12.2389,1.8598-3.3612,15.7867-22.6177,15.9582s-33.094-46.3917-33.094-46.3917l-.083.0111a52.19788,52.19788,0,0,0,.236,13.5431c1.9836,11.8053,7.9699,22.6029,15.1508,32.1809,4.3925,5.8586,9.5723,11.5749,16.4583,14.0652,6.8856,2.4903,15.8078.6784,19.3382-5.7368,3.2026-5.8201,2.0632-14.6957,8.0478-17.5793,5.0122-2.4152,11.967,1.5084,16.1689-2.1388C149.33415,408.66025,147.33645,402.38305,143.55345,399.30835Z"/>
        <path class="cls-6" d="M215.21315,515.13805q-2.22465,18.3114-4.4485,36.6231a6.37243,6.37243,0,0,1-.7616,2.7363c-1.8328,2.8377-6.2646,1.1568-8.8568-1.009-6.8668-5.737-12.7942-13.4459-21.4762-15.6107-6.0265-1.5025-12.4633-.0249-18.5415-1.3041-4.8605-1.0229-9.6492-5.2871-9.9467-9.7898a11.6706,11.6706,0,0,0-3.7244,4.2451c-3.1317,6.4834,2.5943,14.1662,9.2765,16.8481s14.1926,2.3371,21.1243,4.284c12.1684,3.4173,21.1924,13.3683,31.7746,20.2782,2.2093,1.4421,5.0597,2.7793,7.3596,1.4879,2.5401-1.4263,2.629-4.9865,2.3909-7.89Q217.2985,540.58755,215.21315,515.13805Z"/>
        <path class="cls-6" d="M299.33975,399.07465c6.4052.2911,12.5565-2.7382,17.2161-7.224,10.9597-16.879,16.7953-28.5502,14.308-42.8887a23.75393,23.75393,0,0,0-1.1399-4.8155,83.51439,83.51439,0,0,1-13.3266,23.4698c-4.5045,5.5749-10.2002,10.8098-17.2721,11.9741-10.0583,1.6559-19.5609-5.4163-25.7511-13.5154-2.9492-3.8615-5.7401-8.2759-6.9861-13.0343-.5586-2.1329.0449-7.2266-.2158-10.8737a23.89884,23.89884,0,0,0-3.9078,14.1052c.1705,11.4871,7.3621,21.6492,15.2389,30.0119C283.43835,392.585,290.69325,398.68175,299.33975,399.07465Z"/>
        <path class="cls-6" d="M206.98845,174.74965a20.39,20.39,0,0,1-3.7103,9.8427c-3.0637,4.3816-7.3622,7.7215-11.5923,10.9913-9.3132,7.1984-20.4345,14.8218-31.8699,12.0315a12.97807,12.97807,0,0,1-7.4219-4.4831c-1.7225-2.2981-2.3196-5.2405-2.609-8.098-1.0651-10.5257,5.7632-21.0871,6.642-29.8092-.0521.0146-.1056.026-.1581.0409l-.9087.6205a66.60663,66.60663,0,0,0-17.1802,42.0004c-.1479,3.9796.1508,8.2298,2.4888,11.4534,4.2626,5.8763,13.0134,5.7224,20.1033,4.1641a96.71015,96.71015,0,0,0,39.3517-18.7494c6.6479-5.2988,13.0809-12.9089,11.6538-21.2897A16.26134,16.26134,0,0,0,206.98845,174.74965Z"/>
        <path class="cls-7" d="M162.93825,174.12815c-4.9241,9.8481,29.1779,16.3396,32.6792,8.1698S167.60665,164.79125,162.93825,174.12815Z"/>
        <path class="cls-7" d="M272.64725,348.02855c-1.3432,8.0587,40.9748,9.7707,43.2462-.9502S274.98145,334.02315,272.64725,348.02855Z"/>
        <path class="cls-7" d="M85.90855,359.69975c-8.1698,7.0027,15.1725,46.6846,25.6765,39.6819S94.07835,352.69705,85.90855,359.69975Z"/>
        <path class="cls-7" d="M190.94905,504.42215c-9.9326,4.1386,3.5013,37.3478,10.504,35.0136S204.95445,498.58665,190.94905,504.42215Z"/>
        <path class="cls-1" d="M410.93165,271.00955c-3.9023.1436-6.4001-.0107-6.4001-.0107l-2.4191,8.0641C405.11545,276.50575,408.03805,273.79245,410.93165,271.00955Z"/>
        <path class="cls-1" d="M215.85275,661.70055a226.54081,226.54081,0,0,0,6.718-23.2091c1.1942-8.4847,2.2247-16.937,2.2247-20.8589,0-9.337-22.1754-35.0135-22.1754-35.0135s10.5041,25.6765,11.6714,36.1806-21.0081,40.8491-21.0081,40.8491Z"/>
        <path class="cls-1" d="M29.887,327.02045s17.5067-4.6685,25.6765-12.8383,11.6712-40.8491,11.6712-40.8491,3.5014,38.5149-7.0027,51.3532-28.0108,23.3423-28.0108,23.3423Z"/>
        <path class="cls-1" d="M529.413,148.45155s-23.3424,5.8356-33.8464-5.8356-19.841-26.8436-28.0108-25.6765-29.178,10.504-29.178,10.504,28.0108-16.3396,37.3478-16.3396,14.0054,15.1725,21.0081,17.5067,23.3423,3.5014,23.3423,3.5014Z"/>
        <g>
          <path class="cls-5" d="M360.97205,312.95385l.0158.0054c13.0159-11.8037,27.2316-22.1305,40.8305-33.6403,4.3186-3.655,8.4628-7.6473,12.598-11.6956a30.27361,30.27361,0,0,0-6.7232-20.7491c-26.7243-32.1049-96.8983-10.6621-78.7966,36.9367C334.19255,297.73745,346.97985,307.83345,360.97205,312.95385Z"/>
          <path class="cls-6" d="M360.97245,312.95385l.0154.0054c17.8808-2.179,26.4571-4.6747,40.0561-16.1844,4.3108-3.6487,12.8382-19.841,13.351-29.1305a30.53464,30.53464,0,0,0-4.825-18.1889,43.02438,43.02438,0,0,1-1.0062,14.0723c-1.6498,5.9386-5.8709,11.5504-11.8384,13.0937-3.3492.8662-7.1155.4566-10.0429,2.3005-2.6939,1.6973-3.9834,4.8682-5.7952,7.4869-8.3128,12.0149-28.1728,10.5962-38.3157.0801-7.9276-8.2198-10.5622-19.4207-11.1392-30.4873-.0893-1.7112-.1975-3.2627-.3394-4.6935-5.4999,8.5289-7.1249,19.5434-2.1964,32.5028C334.193,297.73745,346.98025,307.83335,360.97245,312.95385Z"/>
          <path class="cls-7" d="M340.34,265.16325c-8.2299-7.4069,5.8356-25.6766,31.5122-24.5094s33.8464,12.8382,26.8437,21.0081-14.0054-9.337-26.8437-8.1699S352.01115,275.66735,340.34,265.16325Z"/>
        </g>
        <g>
          <path class="cls-5" d="M545.00275,160.44455c6.5065-5.4434,9.9741-15.0514,12.3877-22.867a25.34417,25.34417,0,0,1,1.4634-5.0541c2.5042-9.2239,4.5703-19.5038,8.1614-28.8356-1.5464-3.4304-5.0045-6.148-12.1162-7.5887-7.1959-1.4577-15.7856,2.9196-22.2194-.6166-6.4343-3.5362-12.3428-8.8522-19.6613-9.437-10.9439-.8745-20.1307,10.1709-20.5038,21.1432s5.8504,21.1554,13.3681,29.156A88.592,88.592,0,0,0,545.00275,160.44455Z"/>
          <path class="cls-6" d="M545.00275,160.44455c6.5065-5.4434,9.9741-15.0514,12.3877-22.867a25.34417,25.34417,0,0,1,1.4634-5.0541c2.5042-9.2227,4.5699-19.501,8.1597-28.8318a9.98657,9.98657,0,0,0-1.5823-2.4866q-1.34955-1.095-2.6995-2.1901c1.269,6.5349,1.5827,15.0992-4.4545,17.9043-1.8237.8475-3.936.9427-5.7298,1.8522-4.5635,2.3137-5.1328,8.4546-5.4235,13.5629-.291,5.1084-1.887,11.3686-6.8834,12.472-2.4816.548-5.0242-.4535-7.3122-1.5594-16.2856-7.8711-27.0448-21.3647-34.4929-37.4575-1.5408-3.3289-2.5661-5.6345-3.674-7.5516a22.96831,22.96831,0,0,0-2.2469,8.9509c-.3731,10.9722,5.8504,21.1554,13.3681,29.156A88.592,88.592,0,0,0,545.00275,160.44455Z"/>
          <path class="cls-7" d="M508.40475,99.43265c-6.0675,8.4946,7.0027,30.3451,17.5068,28.0108s-1.1671-12.8383,7.0027-14.0054,21.0081-1.1671,18.6739-5.8356-18.6739,1.1672-25.6766-4.6684S514.24035,91.26285,508.40475,99.43265Z"/>
        </g>
        <path class="cls-4" d="M271.48005,94.76425c-7.1398-13.2598-7.0027-47.2683,17.5068-56.0217s75.279-7.0027,105.0405,5.2521c16.6667,6.8627,26.2601,8.7534,45.5176,8.7534s35.0135-1.7507,43.7668,8.7533-7.0027,33.2629-26.2601,36.7642-29.7615-17.5067-43.7669-29.7615-31.5121-17.5067-43.7668-12.2547-7.0028,26.2601-36.7642,29.7615S283.73485,117.523,271.48005,94.76425Z"/>
        <g>
          <path class="cls-2" d="M348.50975,127.44345c8.1699-2.3342,17.6645-11.633,19.841-15.1725,2.7985-4.551,2.0062-9.7167,3.5113-14.8428,3.0742-10.4702,17.6335-12.2255,27.87-8.4454s19.5668,10.9931,30.4742,11.3117q-12.7668-10.2636-25.5338-20.5271c-9.0333-7.2621-20.7875-14.9362-31.3245-10.108-9.4322,4.322-14.4731,17.6509-24.8465,17.4547-30.6667-.5801-62.1957-70.3368-67.1879-2.0532C276.91825,145.18135,305.14725,139.83275,348.50975,127.44345Z"/>
          <path class="cls-5" d="M338.95085,89.83915a117.9753,117.9753,0,0,1-25.4419-27.3629c-4.7774-7.14-10.8105-15.8845-19.3363-14.8292-6.7737.8383-10.9632,7.6314-13.913,13.7864-5.253,10.9609-9.8741,22.683-9.5118,34.8322s6.8253,24.8253,18.1547,29.2275c5.8294,2.2651,12.2889,2.1733,18.5227,1.6698C333.99275,125.017,372.19305,115.767,338.95085,89.83915Z"/>
          <path class="cls-6" d="M338.95085,89.83905a117.98809,117.98809,0,0,1-19.5476-19.3327,86.97,86.97,0,0,0,7.1318,14.6806c2.7222,4.4644,5.9756,9.1271,5.6482,14.3456-1.0151,16.1769-24.0391,17.1695-35.0266,15.0726-10.3338-1.9721-18.6739-9.3369-26.3641-21.8657-.0547,1.1717-.0799,2.3462-.0445,3.5262.362,12.1491,6.8249,24.8253,18.1547,29.2274,5.8291,2.2652,12.289,2.1734,18.5223,1.6698C333.993,125.017,372.19325,115.76685,338.95085,89.83905Z"/>
          <path class="cls-7" d="M293.65535,57.41645c-5.004,3.0024-9.337,43.1833,1.1671,42.0162s22.1752-1.1671,21.0081-9.3369S299.49085,53.91515,293.65535,57.41645Z"/>
        </g>
        <path class="cls-8" d="M315.247,42.244c1.7507,8.7534,19.2574,14.0054,43.7669,7.0027s64.775,14.0054,75.279,21.0081,28.0108,10.5041,24.5095,1.7507-56.0216-24.5095-77.0297-29.7615S313.49625,33.49055,315.247,42.244Z"/>
        <path class="cls-8" d="M108.66725,187.55c-9.4276,0,19.2575-49.0189,40.2656-57.7722s56.0216-12.2548,68.2763-17.5068,22.7588,5.252-1.7507,12.2547-47.2682,3.5014-71.7776,22.7588S117.42065,187.55,108.66725,187.55Z"/>
        <path class="cls-8" d="M494.68845,351.23615c-4.5928-7.6546,39.8407-25.359,47.2682-10.504C545.458,347.73485,499.94045,359.98955,494.68845,351.23615Z"/>
        <path class="cls-8" d="M273.23075,259.32765c-7.4275,9.9033,24.5095,43.7669,29.7615,38.5149S278.48275,252.325,273.23075,259.32765Z"/>
        <path class="cls-8" d="M264.47735,154.28715c-1.4675,8.8053,47.2683,22.7588,64.775,19.2574s35.0135-17.5067,29.7615-22.7587-21.0081,7.0027-36.7642,8.7533S266.22805,143.78315,264.47735,154.28715Z"/>
        <g>
          <path class="cls-1" d="M817.68805,350.36065c-5.6444-28.2205-18.9706-55.9721-31.2254-79.8262-25.4822-49.603-39.7522-99.9195-90.0328-132.2448-7.119-4.5768-14.9359-7.8904-22.7789-11.0679-7.0557,1.4338-14.2674,2.8604-21.0418,5.9308-19.5652,8.8676-19.6229,40.8065-26.6034,58.2688-3.9364,9.8473-9.6539,20.588-19.3685,25.7515-9.6202,5.1133-22.5874,1.0842-28.2686,12.2488-5.2071,10.2336-4.1484,23.9884-4.4279,35.1136-.2706,10.771-.4257,22.0988-4.3998,32.2634-1.7079,4.3673-6.0385,6.5299-10.4233,4.2403-10.6994-5.5877-23.0648-11.4198-35.5093-9.7171-10.2519,1.4027-19.0856,7.9925-26.6845,14.5736-10.5019,9.095-19.8379,19.376-30.5864,28.2105-11.1366,9.154-22.893,17.5401-33.7997,26.9772-20.8568,18.0464-39.1521,41.2291-43.5523,69.1312-4.4865,28.4459,4.7875,57.2523,15.1248,83.3858,1.1493,2.9052-.8138,6.5279-3.2607,8.0129-20.2118,12.2655-43.8592,18.615-57.6761,39.0555-8.2854,12.2572-12.2261,25.8913-18.5167,39.0837-5.1076,10.7129-13.0057,18.5653-22.7785,24.7924-.6838,35.9358-7.8165,74.8816-24.7325,107.2052,39.0226,7.7303,79.7779,9.2635,121.689,22.5183,58.0979,18.3741,101.8272,27.8918,162.2819,5.8154,14.5589-5.3165,28.0903-10.5913,38.1747-21.6079,11.1678-12.2005,6.5547-23.3379,24.9471-31.8526,16.027-7.4197,27.4496,1.7364,41.5336-2.5814,13.5571-4.1563,29.2268-21.3284,38.6487-31.7918,15.5975-17.3214,20.6679-38.6387,33.6116-56.6619,7.3155-10.1869,19.3741-17.5247,27.0636-27.9215,17.5495-23.7278,18.907-47.0527,27.165-74.346,7.3027-24.1353,24.1205-45.2974,29.9786-69.6138C828.54255,417.54325,823.25165,378.17905,817.68805,350.36065Z"/>
          <path class="cls-2" d="M791.428,367.86745c-7.0027-36.7642-40.2656-180.3196-105.0405-217.0837a149.05124,149.05124,0,0,0-37.5733-15.4515c-15.8027,11.0657-16.313,39.8399-22.8084,56.0891-3.9364,9.8473-9.6539,20.588-19.3685,25.7515-9.6202,5.1133-22.5874,1.0842-28.2686,12.2488-5.2071,10.2336-4.1484,23.9884-4.4279,35.1136-.2706,10.771-.4257,22.0988-4.3998,32.2634-1.7079,4.3673-6.0385,6.5299-10.4233,4.2403-10.6994-5.5877-23.0648-11.4198-35.5093-9.7171-10.2519,1.4027-19.0856,7.9925-26.6845,14.5736-10.5019,9.095-19.8379,19.376-30.5864,28.2105-11.1366,9.154-22.893,17.5401-33.7997,26.9772-20.8568,18.0464-39.1521,41.2291-43.5523,69.1312-4.4865,28.4459,4.7875,57.2523,15.1248,83.3858,1.1493,2.9052-.8138,6.5279-3.2607,8.0129-20.2118,12.2655-43.8592,18.615-57.6761,39.0555-8.2854,12.2572-12.2261,25.8913-18.5167,39.0837-5.1076,10.7129-13.0057,18.5653-22.7785,24.7924-.453,23.8095-3.7629,48.931-10.846,72.5827,35.7799-.0927,77.3704-1.6466,111.7458,20.8751,50.7696,33.2628,119.0459,35.0135,155.8101,10.5041s17.5067-38.5149,33.2628-57.7723,46.8848-14.1975,63.0243-14.0054c49.0189.5835,32.679-74.1119,71.7777-89.2845,30.0055-11.644,43.7669-56.0216,43.7669-89.2844S798.43065,404.63165,791.428,367.86745Z"/>
          <path class="cls-3" d="M770.41985,383.62355c-5.2521-43.7669-29.7615-183.8209-84.0324-215.3331a157.52147,157.52147,0,0,0-48.5411-18.3557c-5.7324,13.1949-7.3707,30.305-11.8406,41.4866-3.9364,9.8473-9.6539,20.588-19.3685,25.7515-9.6202,5.1133-22.5874,1.0842-28.2686,12.2488-5.2071,10.2336-4.1484,23.9884-4.4279,35.1136-.2706,10.771-.4257,22.0988-4.3998,32.2634-1.7079,4.3673-6.0385,6.5299-10.4233,4.2403-10.6994-5.5877-23.0648-11.4198-35.5093-9.7171-10.2519,1.4027-19.0856,7.9925-26.6845,14.5736-10.5019,9.095-19.8379,19.376-30.5864,28.2105-11.1366,9.154-22.893,17.5401-33.7997,26.9772-20.8568,18.0464-39.1521,41.2291-43.5523,69.1312-4.4865,28.4459,4.7875,57.2523,15.1248,83.3858,1.1493,2.9052-.8138,6.5279-3.2607,8.0129-20.2118,12.2655-43.8592,18.615-57.6761,39.0555-8.2854,12.2572-12.2261,25.8913-18.5167,39.0837-5.1076,10.7129-13.0057,18.5653-22.7785,24.7924-.115,6.0374-.4364,12.1646-.9309,18.3264,14.8201.0617,29.4683,1.7194,42.3077,6.8551,43.7669,17.5067,94.5365,70.027,126.0486,70.027s75.2791-1.7507,85.7831-33.2628,63.0243-59.523,89.2844-57.7723,23.7239-59.1186,55.6284-82.0796c31.9054-22.9609,61.6669-8.9555,49.4122-75.4812S775.67185,427.39035,770.41985,383.62355Z"/>
          <path class="cls-4" d="M462.40145,415.85655c-6.604-7.8598-37.1989-31.0616-49.3972-26.454-10.9101,4.1208-5.558,22.8153-21.7599,43.1051-.9476,1.187-1.9708,2.3482-2.9761,3.5209a111.55207,111.55207,0,0,0,.8775,26.622c1.1014,1.3648,2.2418,2.6896,3.3475,3.9675,9.9548,11.5046,18.8142,26.1375,15.9189,41.0728-.9318,4.8061-3.0684,9.4724-2.7782,14.3594.6753,11.3568,13.2053,17.5798,23.8949,21.4731,6.5394,2.3817,14.0797,4.7045,20.1622,1.322,4.7853-2.661,7.1942-8.1218,8.9812-13.2974,6.5595-19.0007,13.3976-36.9425,15.8835-56.8893,1.4104-11.3189,2.1212-31.2872-1.7507-42.0162C470.55855,426.41785,466.65845,420.92355,462.40145,415.85655Z"/>
          <path class="cls-4" d="M484.43415,351.59535c.3253,3.1117,2.8349,5.5613,5.5201,7.1671,8.6178,5.1539,19.7342,4.2962,28.6116,8.9889,15.0495,7.9554,16.9133,28.6785,18.4304,45.6336,1.923,21.491-22.1752,44.3505-11.6711,66.5257,10.3241,21.7954,52.7594,11.8905,72.8178-1.4993,5.7852-3.8619,10.6508-8.9395,16.1856-13.1524a66.59766,66.59766,0,0,1,26.5462-12.135c4.111-.863,8.586-1.4701,11.632-4.3627,3.6076-3.426,4.0622-8.975,3.7661-13.9413-1.6631-27.8926-21.1251-53.9184-47.4096-63.3991-18.2263-6.5742-25.7659-5.3041-34.5192-22.8108-8.636-17.2719-27.5762-25.7825-47.1351-24.7807C520.02985,324.19705,483.46045,342.28125,484.43415,351.59535Z"/>
          <path class="cls-4" d="M634.61775,215.25745c-12.4225,2.325-22.4493,13.9685-22.9053,26.5985s8.7051,24.9662,20.9276,28.181c7.1021,1.868,14.6525.8962,21.89,2.1402,15.2813,2.6266,27.4649,15.0384,33.831,29.1767s7.8438,29.9267,8.8938,45.3965c.7146,10.528,1.3732,21.4462,6.3343,30.7594s15.5905,16.536,25.8303,13.9875c13.1935-3.2835,18.0265-19.5141,18.4292-33.104,1.0245-34.5846-11.2901-68.0083-23.4255-100.4101-9.8105-26.1942-21.0931-55.8584-43.4667-74.086C648.17415,157.18965,627.10145,174.58995,634.61775,215.25745Z"/>
          <path class="cls-2" d="M525.59285,508.32945c-4.4254-1.4341-9.2223-2.4124-12.6997-5.5029-5.1037-4.5359-5.8234-12.1597-5.732-18.987.4018-29.9517,26.9355-60.167,9.4108-84.46-13.7242-19.0246-56.853-28.4304-77.246-40.0241-.9155-.5204-1.8229-1.0758-2.7248-1.6481-1.3549,1.1247-2.7311,2.2231-4.0634,3.3758-3.5953,3.111-7.1052,6.3856-10.4908,9.7998a167.513,167.513,0,0,0,14.5624,9.8191c23.8469,14.3475,47.3032,17.8527,53.7024,44.9377,8.9274,37.7869-24.983,92.2384-3.5184,124.5931,4.8066,7.2454,12.0243,12.5049,17.8008,19.0035,21.2077,23.8576,19.6618,61.5682,4.9315,89.8873-14.7303,28.3189-40.0232,49.4072-64.6613,69.7028q39.19905,1.8138,78.3974,3.6276c-13.2156-1.0915-17.6324-19.4649-12.4954-31.69,5.1375-12.2252,15.7266-21.5927,20.5461-33.9466,5.373-13.7734,2.9081-29.4635,7.1036-43.64,4.5519-15.3803,16.4878-27.5769,22.0933-42.6053C570.95435,552.56885,554.02555,517.54215,525.59285,508.32945Z"/>
          <path class="cls-2" d="M719.449,423.418c-16.2703-4.3963-31.6468-16.2019-35.2905-32.6568-4.0185-18.147,6.6877-37.6326.8612-55.2825-9.5411-28.9049-51.4359-28.6153-74.166-48.8607-13.8896-12.3715-19.4677-32.023-18.9177-50.6155a110.88163,110.88163,0,0,1,1.6071-15.4213c-6.1256,1.0016-11.8777,2.3621-15.1744,8.8405-5.2071,10.2336-4.1484,23.9884-4.4279,35.1136a166.496,166.496,0,0,1-1.26,19.8634c2.8918,28.209,10.6604,55.5228,25.0056,70.6305,16.9875,17.8898,45.4778,10.6399,62.8487,25.6615,26.0575,22.5331,9.2992,40.4789,50.2797,50.0623a67.99494,67.99494,0,0,1,40.7306,28.3181,335.68211,335.68211,0,0,1,18.1568-34.5584C752.93105,426.17975,735.71915,427.81425,719.449,423.418Z"/>
          <path class="cls-2" d="M615.85065,549.51845c4.4673.2546,9.0714.4913,13.2951-.9857,4.2913-1.5006,7.7988-4.6402,10.9234-7.9422a88.88754,88.88754,0,0,0,19.5317-32.3979c2.2052-6.4959,4.1603-13.9288,10.094-17.3713,5.9816-3.4704,13.576-1.3942,19.9278,1.3405s12.981,6.1364,19.8085,5.0363,12.6682-9.5187,8.462-15.008c6.5765,9.1039,29.7677-5.7809,31.5184-42.545,2.2841,21.3265,19.2574,77.0297-25.6493,109.3878-7.0901,5.1088-6.5328,1.8891-14.0327-2.5966-4.8383-2.8938-15.1725-7.0027-25.5087-8.6981-9.262-1.5192-18.5001,2.4491-25.2201,9.0017s-12.1237,14.6396-20.0858,19.6093c-8.9593,5.5921-19.9917,6.5126-30.5491,6.7982a345.76441,345.76441,0,0,1-70.9712-5.4158q-4.263-18.552-8.5259-37.1041C528.86875,548.281,607.834,549.06165,615.85065,549.51845Z"/>
          <path class="cls-2" d="M541.22025,293.20455a40.704,40.704,0,0,0-17.6119-1.8827c-10.2519,1.4027-19.0856,7.9925-26.6845,14.5736-10.5019,9.095-19.8379,19.376-30.5864,28.2105-11.1366,9.154-22.893,17.5401-33.7997,26.9772-1.0031.8679-1.9943,1.7583-2.9841,2.6499,8.9837,7.2651,20.8794,11.5205,28.7194,19.9678,1.8114-19.765,4.8699-41.8937,20.6508-53.9317,15.1774-11.5782,38.5657-10.5511,50.6063-25.3648a146.80411,146.80411,0,0,0,70.9053,31.2973,8.27413,8.27413,0,0,1,1.5062.3552c1.0861-4.115,5.8038-7.489,5.6611-11.8547A200.63857,200.63857,0,0,1,541.22025,293.20455Z"/>
          <path class="cls-5" d="M384.59655,646.80775c3.996,1.632,8.495,1.6823,12.7748,2.4656a35.26129,35.26129,0,0,1,24.2585,16.9821c1.5936,2.8726,2.7852,6.0429,5.2401,8.3249,4.776,4.4396,13.1322,3.9165,18.5484.1731s8.345-9.8796,9.9747-15.9875c4.9625-18.5991-1.3127-40.1707-17.7105-51.6893C400.61265,581.037,351.531,633.30275,384.59655,646.80775Z"/>
          <path class="cls-5" d="M655.15525,493.00275a45.96,45.96,0,0,0,67.6539,24.9567c4.7413-2.897,9.0781-6.8406,11.1713-11.9875,4.8978-12.0426-3.8336-25.1328-13.0048-34.3471-5.1467-5.1709-10.9604-10.2276-18.1036-11.7313C680.98655,455.29075,646.598,466.78805,655.15525,493.00275Z"/>
          <path class="cls-2" d="M639.119,588.45255c-10.504-10.5041-29.7614,3.5013-22.7587,14.0054S649.62305,598.95655,639.119,588.45255Z"/>
          <path class="cls-2" d="M607.60685,457.15185c-13.8149,2.3025-28.0108-26.2601-15.7561-31.5121S618.11085,455.40115,607.60685,457.15185Z"/>
          <path class="cls-3" d="M600.60415,378.37145c-11.0723,0-10.5041,21.0081,0,21.0081S611.10815,378.37145,600.60415,378.37145Z"/>
          <path class="cls-3" d="M683.32835,250.01645c-5.9403-.9901-13.249,15.6579-6.0223,16.8624S690.55515,251.22085,683.32835,250.01645Z"/>
          <path class="cls-2" d="M368.46375,538.74c-2.8337,1.6149-5.5931,3.3273-8.2546,5.1733-3.1461,8.3951,5.9654,22.5755,14.5581,18.2791C383.85315,557.64945,377.21885,540.02175,368.46375,538.74Z"/>
          <path class="cls-2" d="M702.14325,378.37145s17.5068,33.2629,35.0136,24.5095,10.504-57.7723,10.504-57.7723-5.252,38.5149-15.7561,43.7669C715.78335,396.93625,702.14325,378.37145,702.14325,378.37145Z"/>
          <path class="cls-6" d="M433.67965,662.61185c-9.8899-3.1764-12.4428-16.5512-21.1799-22.1688-10.0134-6.4377-26.535-1.829-32.4704-12.1477a16.62744,16.62744,0,0,1-1.7785-8.6877c-6.9544,10.2837-6.8304,21.8186,6.3458,27.2001,3.9958,1.632,8.4948,1.6823,12.7744,2.4655a35.26194,35.26194,0,0,1,24.259,16.9822c1.5934,2.8725,2.785,6.0429,5.2401,8.3248,4.7759,4.4397,13.1318,3.9166,18.5483.1732,5.4162-3.7434,8.3448-9.8797,9.9745-15.9875a49.69845,49.69845,0,0,0,1.6221-14.4561,35.0827,35.0827,0,0,1-4.9576,10.7603C447.91585,660.81455,440.42205,664.77745,433.67965,662.61185Z"/>
          <path class="cls-6" d="M714.55745,465.80235c2.7974,5.5424,5.2063,11.2781,5.8735,17.4096.8804,8.089-1.9802,17.1352-8.9953,21.258a23.74855,23.74855,0,0,1-11.6081,2.7755c-11.6999.2366-23.0661-4.7852-31.5416-12.7003-4.8481-4.5274-8.2456-11.931-12.6591-17.7533-2.0904,4.558-2.5119,9.961-.4714,16.2108a45.95977,45.95977,0,0,0,67.6536,24.9568c4.7413-2.897,9.0782-6.8406,11.1712-11.9875,4.8982-12.0427-3.8334-25.1329-13.0044-34.3471A72.51764,72.51764,0,0,0,714.55745,465.80235Z"/>
          <path class="cls-7" d="M395.77515,617.63045c.8129,8.1292,15.1725-2.3343,25.6766,4.6684s15.1725,26.8437,21.0081,21.0081,5.8355-25.6765-14.0054-31.5121S394.60805,605.95925,395.77515,617.63045Z"/>
          <path class="cls-7" d="M664.21205,478.74355c1.8988,7.5955,19.8409-8.1698,30.345-1.1671s12.8383,10.504,17.5067,8.1698,0-15.1725-11.6711-17.5068S661.87775,469.40655,664.21205,478.74355Z"/>
          <path class="cls-1" d="M450.62965,370.20165c-6.98-3.1727-10.1501-9.4405-11.6038-14.5089-2.1806,1.7742-4.3608,3.5497-6.4881,5.3904-.6496.5619-1.2877,1.1438-1.9319,1.7157,1.9926,4.2755,5.791,8.9728,13.0211,12.0713,16.3395,7.0027,44.3503,24.5094,51.353,35.0135s3.5014,51.3531,0,68.8598c0,0,18.674-56.0216,11.6713-67.6927S463.46785,376.03725,450.62965,370.20165Z"/>
          <path class="cls-1" d="M637.36835,346.85935s21.0081,9.3369,26.8437,16.3396,9.3369,22.1752,14.0054,28.0108c0,0,1.1671-28.0108-4.6685-37.3477s-26.8437-25.6766-26.8437-25.6766Z"/>
          <path class="cls-1" d="M515.98815,586.11825s9.337,31.5122-1.1671,54.8545-25.6766,47.8518-25.6766,47.8518,28.0108-25.6766,35.0135-50.186,5.8356-51.3532,5.8356-51.3532Z"/>
          <g>
            <path class="cls-5" d="M477.55,551.52665c3.9906,14.1819,15.3471,25.242,27.9386,32.891,10.8311,6.5797,24.5319,11.1318,36.0092,5.7582,13.5744-6.3554,17.9705-23.4128,18.8644-38.3746.593-9.9247.243-20.3362-4.4527-29.0998C534.89165,483.47585,464.29485,504.41965,477.55,551.52665Z"/>
            <path class="cls-6" d="M560.36215,551.80115a81.04075,81.04075,0,0,0-.3732-15.9186,77.22946,77.22946,0,0,1-5.7063,16.8107c-4.0651,8.1786-10.684,15.4977-19.3476,18.3885-15.0081,5.0077-31.2592-4.5182-41.4273-16.6392-7.5399-8.9892-12.4453-19.2168-11.4187-31.1224a27.41762,27.41762,0,0,1,.6642-3.8493c-6.1778,8.2712-8.8252,19.1835-5.2033,32.0558,3.9908,14.1819,15.3471,25.242,27.9386,32.891,10.831,6.5797,24.5321,11.1317,36.0094,5.7582C555.07205,583.82045,559.46835,566.76305,560.36215,551.80115Z"/>
            <path class="cls-7" d="M491.47875,526.59535c-4.6205,10.781,17.5067,19.841,28.0108,7.0027s28.0108,18.6738,28.0108,4.6684-8.1698-26.8437-25.6766-25.6765S494.98005,518.42555,491.47875,526.59535Z"/>
          </g>
          <path class="cls-8" d="M649.62305,180.54515c-3.5014,5.2521,29.7615,26.2602,56.0216,82.2818s17.5067,92.7858,26.2601,92.7858-5.252-66.5257-19.2574-106.7912S656.62575,170.04115,649.62305,180.54515Z"/>
          <path class="cls-2" d="M651.37375,205.05465c-7.2183,7.2182,10.504,33.2628,15.756,24.5094S660.12705,196.30125,651.37375,205.05465Z"/>
          <path class="cls-8" d="M397.52585,444.89715c1.5309,6.1237,45.5175-10.5041,42.0162-24.5095s-21.0081-33.2628-22.7588-21.0081S395.77515,437.89445,397.52585,444.89715Z"/>
        </g>
        <path class="cls-8" d="M173.44225,278.58515c-10.6489,0-22.7587,14.0054-28.0108,28.0108s-10.504,31.5121-3.5013,33.2628,5.252-14.0054,14.0054-24.5095,29.7615-7.0027,33.2628-14.0054S183.94635,278.58515,173.44225,278.58515Z"/>
        <g>
          <path class="cls-5" d="M532.59335,286.62745c4.8969,12.5617,16.3356,21.5358,28.5477,27.2491,7.6735,3.5899,17.8675,5.7074,23.7553-.384,2.2188-2.2956,3.3764-5.3868,4.4764-8.384q5.5986-15.25575,11.1973-30.5114c1.1999-3.2693,2.4193-6.6969,1.9742-10.1509-1.1649-9.0417-12.1832-12.7189-21.2536-13.6346C557.01865,248.36135,518.46705,250.38925,532.59335,286.62745Z"/>
          <path class="cls-6" d="M589.37295,305.10855q5.5983-15.25575,11.1973-30.5114c1.1998-3.2694,2.4192-6.6969,1.9742-10.1509a12.14033,12.14033,0,0,0-5.1853-8.2869c.3167,3.5574-1.6733,7.4133-4.2237,10.1634-3.3201,3.5801-7.6126,6.3666-9.9967,10.6276-3.4296,6.1287-2.3469,14.3489-6.8664,19.7244-6.038,7.1812-17.9559,4.5749-25.4442-1.0773-11.2716-8.5079-17.5948-23.9014-14.9021-37.3184-6.3774,5.5049-8.779,14.3765-3.3325,28.3484,4.8968,12.5616,16.3352,21.5358,28.5476,27.2491,7.6733,3.5899,17.8675,5.7074,23.7551-.3841C587.11535,311.197,588.27285,308.10575,589.37295,305.10855Z"/>
          <path class="cls-7" d="M542.25115,266.33035c-.6427,7.0702,5.8356,19.841,17.5068,16.3397s0-12.8383,9.3369-15.1726,19.841,1.1672,17.5068-4.6684S543.41835,253.49205,542.25115,266.33035Z"/>
        </g>
      </g>
    </g>
  </g>
</svg>
