<svg xmlns="http://www.w3.org/2000/svg" xmlns:xlink="http://www.w3.org/1999/xlink" x="0px" y="0px" viewBox="0 0 16 16" style="enable-background:new 0 0 16 16;" xml:space="preserve"><path fill="#999999" d="M14,1c0.6,0,1,0.4,1,1v12c0,0.6-0.4,1-1,1H2c-0.6,0-1-0.4-1-1V2c0-0.6,0.4-1,1-1H14z M2,0C0.9,0,0,0.9,0,2v12c0,1.1,0.9,2,2,2h12c1.1,0,2-0.9,2-2V2c0-1.1-0.9-2-2-2H2z M8.9,6.6L6.6,6.9L6.6,7.3L7,7.3c0.3,0.1,0.4,0.2,0.3,0.5l-0.7,3.5c-0.2,0.9,0.1,1.3,0.8,1.3c0.5,0,1.2-0.3,1.5-0.6l0.1-0.4c-0.2,0.2-0.5,0.2-0.7,0.2c-0.3,0-0.4-0.2-0.3-0.5L8.9,6.6z M9,4.5c0,0.6-0.4,1-1,1c-0.6,0-1-0.4-1-1c0-0.6,0.4-1,1-1C8.6,3.5,9,3.9,9,4.5z"/></svg>