<svg xmlns="http://www.w3.org/2000/svg" xmlns:xlink="http://www.w3.org/1999/xlink" x="0px" y="0px" viewBox="0 0 100 100" style="enable-background:new 0 0 100 100;" xml:space="preserve"><path d="M75.5,0.5h-51c-13.3,0-24,10.7-24,24v51c0,13.3,10.7,24,24,24h51c13.3,0,24-10.7,24-24v-51C99.5,11.2,88.8,0.5,75.5,0.5z M70,30.5C70,30.5,70,30.5,70,30.5c0.7,0,1.4,0.2,1.9,0.6l0,0c0.4,0.3,0.6,0.8,0.7,1.3v0c0.1,0.4,0.1,0.8,0.1,1.3c0,0.2,0,0.4,0,0.6v0c-0.7,7.5-3.8,25.8-5.4,34.3c-0.7,3.6-2,4.8-3.3,4.9c-2.8,0.3-4.9-1.8-7.6-3.6c-4.2-2.8-6.6-4.5-10.6-7.2c-4.7-3.1-1.7-4.8,1-7.6c0.7-0.7,12.9-11.8,13.1-12.8c0-0.1,0-0.1,0-0.2c0-0.2-0.1-0.5-0.2-0.6l0,0c-0.2-0.1-0.4-0.2-0.6-0.2c-0.1,0-0.3,0-0.4,0.1l0,0c-0.4,0.1-7.1,4.5-20.1,13.3c-1.4,1.1-3.2,1.8-5.2,1.9h0c-2.8-0.3-5.3-0.9-7.6-1.8l0.2,0.1c-3-1-5.4-1.5-5.2-3.1c0.1-0.9,1.3-1.7,3.5-2.6c13.9-6.1,23.2-10,27.8-12c5.1-2.7,11-5,17.3-6.4L70,30.5L70,30.5z"/></svg>